<?xml version="1.0" encoding="UTF-8" standalone="no"?>
<!-- Created with Inkscape (http://www.inkscape.org/) -->

<svg
   xmlns:dc="http://purl.org/dc/elements/1.1/"
   xmlns:cc="http://creativecommons.org/ns#"
   xmlns:rdf="http://www.w3.org/1999/02/22-rdf-syntax-ns#"
   xmlns:svg="http://www.w3.org/2000/svg"
   xmlns="http://www.w3.org/2000/svg"
   xmlns:sodipodi="http://sodipodi.sourceforge.net/DTD/sodipodi-0.dtd"
   xmlns:inkscape="http://www.inkscape.org/namespaces/inkscape"
   width="612pt"
   height="792pt"
   id="svg7296"
   version="1.1"
   inkscape:version="0.48.5 r10040"
   sodipodi:docname="New document 3">
  <defs
     id="defs7298" />
  <sodipodi:namedview
     inkscape:document-units="in"
     pagecolor="#ffffff"
     bordercolor="#666666"
     borderopacity="1.0"
     inkscape:pageopacity="0.0"
     inkscape:pageshadow="2"
     inkscape:zoom="0.36"
     inkscape:cx="340"
     inkscape:cy="500"
     inkscape:current-layer="layer1"
     id="namedview7300"
     showgrid="false"
     inkscape:window-width="1366"
     inkscape:window-height="716"
     inkscape:window-x="0"
     inkscape:window-y="24"
     inkscape:window-maximized="1" />
  <metadata
     id="metadata7302">
    <rdf:RDF>
      <cc:Work
         rdf:about="">
        <dc:format>image/svg+xml</dc:format>
        <dc:type
           rdf:resource="http://purl.org/dc/dcmitype/StillImage" />
        <dc:title></dc:title>
      </cc:Work>
    </rdf:RDF>
  </metadata>
  <g
     inkscape:label="Layer 1"
     inkscape:groupmode="layer"
     id="layer1">
    <g
       transform="matrix(0.77477476,0,0,0.77477476,6712.658,777.98196)"
       id="g7279">
      <path
         inkscape:connector-curvature="0"
         id="path5599"
         d="m -8181.5711,-927.91662 c -0.5251,0 -1.5099,1.0125 -2.1563,2.25 -0.6463,1.2375 -5.007,8.4698 -9.6874,16.0625 l -8.5,13.8125 0.625,11.1875 c 0.5706,10.4728 11.4223,191.9858 15.5312,259.6875 1.0181,16.775 1.5818,30.7777 1.25,31.125 -0.3318,0.3473 -4.7562,0.8538 -9.8438,1.125 -9.2138,0.4911 -9.25,0.4957 -9.25,-1.875 2e-4,-1.3091 -3.392,-49.69745 -7.5312,-107.53125 l -7.5312,-105.15625 -7.2188,-8.375 c -14.8749,-17.275 -13.5196,-15.98785 -14.2812,-13.78125 -0.3761,1.089 -2.8823,6.84505 -5.5626,12.78125 -3.5537,7.8704 -4.875,12.0309 -4.875,15.375 0,4.7567 6.3621,39.207 10.5313,57 1.3126,5.602 5.08,24.952 8.375,43 5.5424,30.3571 10.343,54.6398 18.0313,91.3125 1.6719,7.975 3.0212,15.45135 3.0312,16.59375 0.01,1.7779 -0.9415,2.22825 -6.7188,3.28125 -3.7124,0.6767 -7.7168,1.49035 -8.9062,1.78125 -1.9827,0.485 -2.3146,-0.1276 -3.8438,-7.3125 -0.9173,-4.3101 -4.2659,-18.64375 -7.4374,-31.84375 -3.1716,-13.2 -6.549,-27.6 -7.5,-32 -0.9512,-4.4 -3.0065,-13.625 -4.5938,-20.5 -1.5873,-6.875 -4.0602,-17.9 -5.4688,-24.5 -1.4084,-6.6 -3.0466,-14.1904 -3.6562,-16.875 -0.8094,-3.5646 -2.8682,-7.0712 -7.625,-13 -9.8151,-12.2336 -9.461,-12.16515 -10.9062,-2.40625 -2.6001,17.5552 -2.9593,15.96575 16.6874,76.78125 15.3295,47.4517 21.9477,68.41605 22.5626,71.53125 0.5925,3.002 0.5546,3.01675 -7.6876,5.71875 -4.5486,1.4912 -8.3159,2.59175 -8.375,2.46875 -1.0047,-2.0991 -16.1006,-44.89745 -24.4062,-69.21875 -27.8401,-81.5245 -42.0253,-122.00775 -45.6562,-130.21875 -2.1207,-4.7953 -3.2651,-5.8553 -13.75,-12.75 -6.2898,-4.136 -11.838,-7.53125 -12.3438,-7.53125 -1.0407,0 -4.3538,21.20735 -4.3438,27.84375 0,3.601 2.2898,8.819 13.375,30.5 7.3555,14.3857 15.6563,31.18715 18.4688,37.34375 2.8125,6.1567 15.0993,31.5817 27.2812,56.5 29.3253,59.9849 33.9709,69.84385 33.4688,70.65625 -0.6273,1.0149 -16.4851,8.60595 -16.9062,8.09375 -0.1987,-0.2415 -28.1774,-56.0125 -62.1563,-123.9375 -59.2972,-118.537 -71.7326,-143.1062 -73.75,-145.6875 -1.079,-1.3805 -33.9003,-17.53735 -34.4687,-16.96875 -0.2121,0.2119 -0.6354,8.44275 -0.9688,18.28125 -0.6964,20.5555 -0.6174,20.888 7.6875,32.625 4.4854,6.3392 49.9747,74.9036 115.625,174.25 23.8677,36.1182 42.3437,64.4727 42.3437,65 2e-4,0.2036 -2.7626,2.08085 -6.125,4.15625 -3.4318,2.1183 -5.5154,3.9506 -4.75,4.1875 3.4989,1.0832 3.8761,2.36515 1.2813,4.40625 -2.4007,1.8884 -2.6889,1.90525 -4.25,0.34375 -1.472,-1.4723 -1.4779,-1.78645 -0.1563,-2.71875 1.287,-0.9078 1.2606,-0.98175 -0.1562,-0.53125 -1.2668,0.4029 -8.2354,-9.18145 -29.9062,-41.15625 -15.5372,-22.9245 -29.5266,-43.3084 -31.0938,-45.3125 -1.5672,-2.0042 -2.8438,-3.90425 -2.8438,-4.21875 0,-0.3146 -3.3002,-5.2187 -7.3124,-10.875 -4.0124,-5.6563 -12.8286,-18.5373 -19.5938,-28.625 -6.7652,-10.0876 -16.8791,-24.9385 -22.4688,-33 l -10.1562,-14.65625 -13.1875,-4.46875 c -7.2581,-2.4549 -13.5149,-4.1412 -13.9063,-3.75 -0.391,0.3911 -0.153,7.1263 0.5313,14.9375 l 1.25,14.1875 13.2187,15.0625 c 17.1878,19.5579 71.9602,82.42755 77.125,88.53125 2.2002,2.5999 14.5269,16.78545 27.4063,31.53125 l 23.4063,26.8125 -6.4063,5.78125 c -3.5294,3.1897 -6.6672,5.82575 -6.9687,5.84375 -0.8366,0.0506 -27.811,-28.48465 -53.875,-56.96875 -39.3664,-43.0213 -43.1524,-46.85085 -47.0313,-48.09375 -1.9517,-0.6254 -5.3312,-1.9567 -7.5313,-2.9375 -2.1999,-0.9808 -5.6639,-2.08995 -7.6874,-2.46875 l -3.6876,-0.6875 4,10.25 c 2.19,5.647 4.8414,11.5045 5.9063,13 1.0649,1.4956 7.2188,7.3821 13.6875,13.0625 6.4687,5.6804 16.0563,14.37285 21.2812,19.34375 13.5553,12.8961 54.1731,50.09385 62.75,57.46875 7.2904,6.2686 8.9604,8.75155 5.25,7.78125 -1.5041,-0.3933 -3.2454,0.85395 -6.9687,5.03125 -4.4733,5.019 -5.1477,5.42415 -6.75,4.15625 -1.7169,-1.3587 -12.9204,-11.10935 -52.7813,-45.90625 -10.3955,-9.075 -23.1817,-20.153 -28.4374,-24.625 -20.0659,-17.0729 -40.4729,-34.4678 -59.4376,-50.6875 -11.3056,-9.6693 -21.0538,-17.24055 -22.9062,-17.78125 -5.0713,-1.4802 -27.7187,-2.3959 -27.7188,-1.125 0,1.5138 6.4526,18.2723 8.8126,22.875 1.0847,2.1156 3.0527,4.782 4.3437,5.9375 2.2275,1.9936 24.362,17.01595 95.8437,65.03125 17.325,11.6374 37.5751,25.2829 45,30.3125 7.4251,5.0296 18,12.10345 23.5,15.71875 5.5,3.6153 10.1595,6.738 10.375,6.9375 0.5215,0.483 -9.2026,15.26375 -10.0937,15.34375 -0.5942,0.0532 -32.9861,-20.85815 -82.2813,-53.09375 -7.1499,-4.6756 -22.8999,-14.95225 -35,-22.84375 -12.1,-7.8916 -31.225,-20.3846 -42.5,-27.75 -11.2749,-7.3654 -27.179,-17.7375 -35.3437,-23.0625 -8.1646,-5.325 -24.2955,-15.94965 -35.8437,-23.59375 l -21,-13.875 -19.125,0.6875 c -10.5223,0.3875 -19.3564,0.9187 -19.625,1.1875 -0.794,0.7939 13.4732,28.70955 16.5312,32.34375 2.2442,2.6671 26.4263,15.0956 120.8438,62.125 64.9268,32.3401 125.1265,62.45525 133.7812,66.90625 l 15.75,8.09375 -3.5,6.84375 c -1.9172,3.7621 -3.4687,7.12035 -3.4688,7.46875 0,0.3484 1.125,0.625 2.5,0.625 2.7122,0 3.519,2.66315 1.0938,3.59375 -0.765,0.2936 -11.0025,-4.1778 -22.75,-9.9375 -32.1522,-15.7637 -80.4073,-39.09475 -107.3438,-51.90625 -13.1998,-6.2783 -34.0155,-16.3004 -46.25,-22.25 l -22.25,-10.8125 -14.75,2.78125 c -8.1153,1.5308 -14.9114,2.93585 -15.0937,3.09375 -0.1823,0.1578 3.7217,5.7683 8.6563,12.5 l 8.9687,12.25 49.3437,16.9375 c 27.1478,9.316 72.325,24.79325 100.375,34.40625 28.0502,9.613 51.3434,17.85475 51.7813,18.28125 0.4378,0.4266 -0.1247,3.0825 -1.25,5.9375 -2.6051,6.6092 -2.5579,7.125 0.4687,7.125 2.494,0 3.0899,1.3094 1.9376,4.3125 -0.7458,1.9429 -13.6079,-1.38375 -43.4376,-11.28125 -11.8248,-3.9236 -30.5,-9.79125 -41.5,-13.03125 -11,-3.2401 -27.875,-8.43245 -37.5,-11.53125 l -17.5,-5.625 -11.5,1.75 c -6.3248,0.9645 -11.849,2.04155 -12.2812,2.40625 -1.139,0.9612 13.4406,12.75185 18.5938,15.03125 2.4049,1.0639 10.8551,3.2823 18.7812,4.9375 7.926,1.6552 15.9812,3.4874 17.9062,4.0625 1.9251,0.5751 12.95,3.06545 24.5,5.53125 11.5501,2.4659 24.825,5.36695 29.5,6.46875 7.2881,1.7177 35.0614,7.9203 43.125,9.625 l 2.5938,0.5625 -1.9062,8.59375 c -1.0565,4.7404 -2.0157,8.684 -2.125,8.75 -0.1743,0.1048 -49.5291,-9.28605 -172.8438,-32.90625 -19.0627,-3.6513 -35.4877,-6.64625 -36.5,-6.65625 -2.215,-0.0151 -27.3437,12.0447 -27.3438,13.125 0,0.9879 18.2198,15.911 21.9063,17.9375 2.003,1.101 8.5482,1.94465 22.2187,2.84375 84.6683,5.5681 191.0484,12.95465 191.375,13.28125 0.2193,0.2193 0.1098,4.52415 -0.2187,9.59375 l -0.5937,9.21875 -3.8126,0 c -2.0988,0 -23.5116,-1.129 -47.5937,-2.5 -121.0879,-6.8937 -224.2527,-12.6137 -236.7813,-13.125 l -14,-0.5625 -15,10.21875 c -8.2498,5.6245 -15.1517,10.591 -15.3124,11 -0.1608,0.409 0.4165,1.01195 1.2812,1.34375 0.8647,0.3318 8.1761,4.7391 16.25,9.8125 l 14.6875,9.21875 37.5313,-2.21875 c 20.6471,-1.2198 85.7125,-5.0927 144.5624,-8.625 58.8501,-3.5324 109.4751,-6.5377 112.5,-6.6875 l 5.5,-0.28125 0.5,9.625 0.5,9.625 -7.5,0.59375 c -8.6066,0.6935 -77.9361,5.75885 -153,11.15625 l -51.5,3.6875 -9.375,7.625 c -5.1527,4.1838 -10.5528,8.58475 -12,9.78125 -1.8459,1.526 -2.3283,2.4982 -1.5937,3.25 2.4337,2.491 24.1056,11.0621 27.9687,11.0625 2.2,2e-4 10.525,-1.35 18.5,-3 18.7618,-3.8815 53.0778,-10.4021 74,-14.0625 9.075,-1.5877 23.025,-4.27565 31,-5.96875 26.1398,-5.5495 37.2149,-7.81475 58.5,-11.90625 28.8838,-5.5522 25.5818,-5.8492 27.125,2.4375 0.717,3.85 1.5285,7.9611 1.8126,9.125 0.4501,1.8441 -0.028,2.1796 -3.7188,2.6875 -2.3294,0.3206 -19.7437,4.24 -38.7188,8.6875 -18.9749,4.4475 -42.1498,9.6403 -51.5,11.5625 -17.2511,3.5466 -38.1116,8.7248 -42.3437,10.5 -1.2783,0.5362 -6.1769,4.23805 -10.9063,8.21875 l -8.5937,7.21875 13.1563,1.8125 13.1874,1.78125 65.25,-20.625 c 35.8868,-11.3458 65.5926,-20.7215 66.0313,-20.8125 0.4387,-0.091 2.0749,3.7362 3.625,8.5 l 2.8125,8.6875 -17.125,5.71875 c -21.9443,7.3595 -97.1286,33.49085 -118.5938,41.21875 -9.0748,3.2672 -26.1749,9.1807 -38,13.125 -11.8249,3.9444 -23.2548,8.1575 -25.4062,9.375 -2.8169,1.594 -6.1075,5.4326 -11.7188,13.6875 -4.2856,6.3047 -7.6583,11.5917 -7.5,11.75 0.1585,0.1583 6.5339,1.37725 14.1876,2.71875 l 13.9374,2.4375 15.5,-7.34375 c 8.5251,-4.0505 23.5335,-11.221 33.375,-15.9375 9.8419,-4.7165 18.0156,-8.59375 18.1563,-8.59375 0.6732,0 88.9215,-42.7135 108.5937,-52.5625 9.396,-4.7041 17.2684,-8.3566 17.5,-8.125 1.6343,1.6344 8.3186,17.2271 7.5,17.5 -0.5649,0.1883 -60.1311,29.9296 -132.3437,66.125 -94.2688,47.2508 -132.2356,66.7664 -134.6563,69.1875 -3.5707,3.5712 -17.817,31.5268 -16.6562,32.6875 0.9242,0.9242 15.0245,2.03 27.3125,2.125 l 10.25,0.0625 42.25,-27.90625 c 23.2226,-15.354 57.5189,-38.0178 76.2187,-50.375 18.7002,-12.3572 55.6001,-36.7799 82,-54.25 26.4,-17.4701 48.4931,-31.819 49.125,-31.875 0.632,-0.0563 3.491,3.4607 6.3438,7.8125 3.9472,6.0207 4.8602,8.12615 3.8438,8.71875 -0.7346,0.4283 -10.5376,7.0626 -21.8126,14.75 -11.2749,7.6873 -37.1499,25.21325 -57.5,38.96875 -55.6604,37.6232 -92.4449,62.7994 -94.5312,64.6875 -1.8061,1.6345 -6.0473,12.2627 -9.3438,23.375 l -1.625,5.40625 12.25,-0.6875 c 6.7331,-0.3748 13.4521,-0.9313 14.9376,-1.25 1.4853,-0.3187 6.177,-3.45265 10.4062,-6.96875 4.2292,-3.516 7.7771,-6.40625 7.9062,-6.40625 0.1293,0 0.2501,1.125 0.25,2.5 2e-4,1.4546 -0.5749,2.5 -1.375,2.5 -1.1565,0 -1.3759,14.4161 -1.375,90.75 7e-4,49.9125 0.2921,112.6875 0.6563,139.5 l 0.6563,48.74995 134.3437,0 134.3437,0 0,-167.99995 c 0,-159.3329 0.09,-168 1.75,-168 0.9626,-7e-4 5.3501,0.4569 9.75,1 4.4001,0.543 11.0911,1.25965 14.875,1.59375 l 6.875,0.59375 -0.6562,10.15625 c -0.3581,5.5861 -1.3151,21.85625 -2.125,36.15625 -0.8099,14.3 -1.9343,34.1 -2.5,44 -0.5657,9.9 -3.4545,60.73535 -6.4375,112.96875 l -5.4375,94.96875 2.1562,3.53125 c 5.4963,8.9732 18.9131,29.187 19.1563,28.875 0.1494,-0.1917 4.8645,-7.4698 10.5,-16.1875 l 10.25,-15.84375 -3.0937,-51.15625 c -1.7044,-28.1323 -4.2378,-69.83125 -5.625,-92.65625 -6.395,-105.2195 -9.283,-154.4984 -9.0938,-154.6875 0.113,-0.1131 5.9265,-0.67745 12.9375,-1.28125 7.0109,-0.6037 13.4065,-1.3757 14.2187,-1.6875 1.2993,-0.4985 1.5001,19.647 1.5,167.0625 l 0,167.5937 134.5,0 134.5,0 0.125,-36.24995 c 0.081,-19.9375 0.418,-84.13815 0.75,-142.65625 l 0.625,-106.375 9.3438,8 9.3438,8 9.6562,0.625 c 5.3093,0.3516 12.0536,0.65625 15,0.65625 4.7023,0.005 5.2686,-0.214 4.6562,-1.75 -0.3837,-0.9625 -2.057,-5.575 -3.7187,-10.25 -4.1382,-11.6418 -6.2202,-15.4719 -10.0313,-18.375 -3.0792,-2.3459 -20.966,-14.3855 -125.4687,-84.5 -24.0824,-16.1578 -44.5724,-30.12745 -45.5313,-31.03125 -1.6477,-1.5532 -1.4957,-1.99635 2.875,-8.59375 2.5431,-3.8385 4.9729,-7.3973 5.4063,-7.875 0.4335,-0.4777 9.4927,4.8979 20.125,11.9375 10.6323,7.0397 27.6688,18.27905 37.8437,24.96875 10.1752,6.6898 33.125,21.80955 51,33.59375 46.6854,30.7774 99.5037,65.4675 109.7188,72.0625 4.8333,3.1205 14.4103,9.28965 21.3125,13.71875 l 12.5625,8.0625 18.25,-1.375 c 10.0386,-0.7487 18.5105,-1.60425 18.8125,-1.90625 0.962,-0.962 -9.5181,-20.7093 -16.375,-30.875 -2.2814,-3.3823 -13.7531,-9.3161 -133.1563,-68.8125 -71.8564,-35.8048 -133.0777,-66.3108 -136.0624,-67.8125 -5.7517,-2.8936 -6.5767,-3.8671 -5.1876,-6.0625 0.6978,-1.1027 1.2948,-0.924 3.0313,0.8125 1.185,1.185 2.5297,1.9157 3,1.625 0.4704,-0.2907 2.2737,-3.4831 4,-7.0625 1.7262,-3.5793 3.3825,-6.5 3.6563,-6.5 0.9638,0 51.4418,24.07765 94.4374,45.03125 95.8468,46.71 94.9153,46.282 101,46.25 5.0578,-0.0269 24.7053,-3.6426 25.8126,-4.75 0.5298,-0.5298 -4.7395,-8.55925 -12.1876,-18.59375 l -4.8437,-6.53125 -58.6563,-20.34375 c -125.2896,-43.4745 -141.5845,-49.17825 -141.9374,-49.53125 -0.4509,-0.4509 3.9336,-14.70005 4.875,-15.84375 0.8204,-0.9969 7.4198,0.8904 41.4374,11.875 14.3001,4.6176 32.0751,10.19305 39.5,12.40625 7.4252,2.2132 21.9827,6.72885 32.375,10.03125 10.3925,3.3024 20.6033,6 22.6876,6 3.89,0 15.6748,-2.1975 19.6874,-3.6875 2.0651,-0.7668 1.4923,-1.4729 -6.9374,-8.25 -7.2434,-5.8231 -10.3645,-7.65785 -14.75,-8.71875 -3.0598,-0.7401 -27.3875,-6.06555 -54.0626,-11.84375 -70.8407,-15.3451 -75.2817,-16.3755 -76.3437,-17.4375 -0.9892,-0.9892 0.8754,-14.6747 2.3125,-17 0.5314,-0.8599 4.3809,-0.37415 14.625,1.84375 21.8815,4.7376 58.0644,11.7602 79.9062,15.5 11.0002,1.8835 22.7774,4.14745 26.1876,5.03125 3.4101,0.8838 15.11,3.1218 26,5 10.8899,1.8783 28.7328,5.2612 39.6562,7.5 10.9234,2.2388 20.9961,4.0625 22.375,4.0625 2.8361,0 18.2823,-6.69175 24.5625,-10.65625 l 4.1563,-2.625 -3.4376,-2.625 c -1.8865,-1.4308 -6.481,-5.17725 -10.1874,-8.34375 -3.7067,-3.1665 -7.9616,-6.2394 -9.4688,-6.8125 -4.6378,-1.7633 -16.0157,-2.798 -48.0625,-4.4375 -16.9415,-0.8667 -35.5062,-2.23095 -41.2813,-3.03125 -5.7749,-0.8003 -21.5249,-1.8949 -35,-2.4375 -13.475,-0.5426 -27.6499,-1.4572 -31.5,-2 -8.4611,-1.1928 -45.442,-4.03125 -52.4687,-4.03125 l -5.0313,0 0.094,-5.25 c 0.048,-2.8875 0.3857,-7.2735 0.75,-9.75 l 0.6562,-4.5 38,2.1875 c 63.0157,3.6471 157.9228,9.18085 211.6563,12.34375 l 50.6875,3 16.1875,-10.59375 c 10.1172,-6.6294 15.8072,-10.974 15.2187,-11.5625 -2.0228,-2.0229 -29.9039,-18.95555 -32.1562,-19.53125 -1.3141,-0.3359 -28.9891,1.01725 -61.5,3.03125 -174.5949,10.8156 -237.9552,14.6073 -238.3125,14.25 -0.2182,-0.2182 -0.7258,-4.47255 -1.125,-9.46875 l -0.7187,-9.09375 4.0312,-0.5 c 6.9926,-0.8866 53.2783,-4.4603 72.0312,-5.5625 9.9,-0.5818 29.4751,-1.95835 43.5,-3.03125 14.025,-1.0729 32.25,-2.4188 40.5,-3 40.8633,-2.8789 53.013,-4.08495 55.125,-5.46875 1.2023,-0.7877 5.273,-4.17725 9.0313,-7.53125 3.7584,-3.3541 8.0814,-6.8431 9.5937,-7.75 4.6792,-2.8057 4.1119,-3.31155 -11.2812,-10.28125 -13.6419,-6.1768 -14.66,-6.2492 -35.8438,-1.875 -8.0567,1.6636 -20.475,4.16765 -27.625,5.53125 -23.1949,4.4234 -52.7514,10.4401 -63.5,12.9375 -5.7749,1.3418 -25.5748,5.1565 -44,8.5 -18.4248,3.3435 -35.975,6.6913 -39,7.4375 -3.0249,0.7462 -7.3371,1.6491 -9.5624,2 l -4.0313,0.65625 -1.75,-9.1875 c -0.9665,-5.0418 -1.6356,-9.2816 -1.4687,-9.4375 0.1666,-0.1558 5.2625,-1.2527 11.3124,-2.4375 6.0501,-1.1848 13.25,-2.78485 16,-3.53125 2.7502,-0.7464 13.3251,-3.03355 23.5,-5.09375 10.1751,-2.0603 27.275,-5.9469 38,-8.625 10.7251,-2.6781 25.125,-5.96625 32,-7.34375 6.875,-1.3774 14.44,-3.528 16.8126,-4.75 4.8721,-2.5097 17.0289,-12.64285 17.125,-14.28125 0.036,-0.6169 -4.9343,-1.79565 -11.6876,-2.78125 l -11.75,-1.71875 -60.5,18.9375 c -33.2749,10.413 -63.1878,19.87315 -66.4687,21.03125 -3.281,1.158 -6.2703,2.09375 -6.625,2.09375 -0.7197,0 -6.3037,-15.9652 -5.75,-16.4375 0.9313,-0.7945 36.4961,-13.52435 53.3437,-19.09375 10.4502,-3.4546 29.3501,-9.9764 42,-14.5 12.65,-4.5237 32.6752,-11.51645 44.5,-15.53125 28.2732,-9.5993 52.293,-18.0193 58.5,-20.5 4.548,-1.8177 5.6328,-2.96405 12.1876,-12.71875 8.8549,-13.1776 9.2236,-13.9809 6.1562,-14.5625 -10.602,-2.0102 -19.2257,-3.15535 -24,-3.15625 -6.374,-0.001 -0.121,-2.8643 -91.3438,41.8125 -27.5,13.4682 -57.425,27.948 -66.5,32.1875 -9.0749,4.2395 -21.3704,10.19135 -27.3124,13.21875 -5.9421,3.0274 -10.9436,5.35595 -11.125,5.15625 -0.1818,-0.1996 -2.1861,-4.0621 -4.4376,-8.5625 l -4.0937,-8.1875 20.2187,-10.4375 c 11.125,-5.7411 71.325,-35.9347 133.75,-67.125 62.4251,-31.1904 114.3187,-57.4569 115.3438,-58.375 1.7906,-1.6036 15.6494,-28.3027 17.0938,-32.9375 l 0.6874,-2.25 -19.5937,0 -19.5937,0 -13.2188,8.21875 c -7.2705,4.5118 -39.3188,25.58105 -71.2188,46.84375 -109.9453,73.2835 -162.3124,107.89705 -165.1562,109.15625 -1.5685,0.6945 -3.3622,1.9256 -4,2.75 -1.0176,1.3153 -1.4188,1.2822 -3.25,-0.375 -1.6135,-1.4602 -1.8484,-2.1901 -0.9688,-3.25 0.6527,-0.7861 1.9793,-1.13495 3.0938,-0.78125 1.4977,0.4754 0.9163,-0.90805 -2.5625,-6.09375 l -4.5313,-6.71875 5.6876,-4.1875 c 7.1746,-5.2686 29.7308,-20.59805 61.1874,-41.59375 13.4751,-8.9939 31.5791,-21.43715 40.25,-27.65625 8.6711,-6.219 27.6811,-19.19495 42.25,-28.84375 14.5692,-9.6488 27.1759,-18.58585 28,-19.84375 2.1227,-3.2397 9.5,-23.0853 9.5,-25.5625 0,-1.847 -0.6055,-2.0625 -5.75,-2.0625 -8.0045,0.005 -22.986,2.5642 -25.5937,4.375 -1.1938,0.8291 -5.3062,4.275 -9.1563,7.625 -3.85,3.3499 -11.0499,9.501 -16,13.6875 -4.9498,4.1864 -15.5249,13.5871 -23.5,20.875 -7.9749,7.2879 -18.3249,16.2895 -23,20 -4.6748,3.7105 -11.1998,9.28435 -14.5,12.40625 -3.3,3.1218 -8.9249,8.11555 -12.5,11.09375 -3.5748,2.9782 -12.35,10.5958 -19.5,16.9375 -7.1499,6.3417 -15.9249,13.9935 -19.5,17 -3.5748,3.0066 -9.918,8.5274 -14.0937,12.25 -4.1757,3.7226 -8.0007,6.7245 -8.5,6.6875 -0.4993,-0.0368 -3.5126,-3.1642 -6.6875,-6.9375 l -5.7812,-6.84375 2.2812,-1.59375 c 1.2499,-0.8697 6.1062,-5.29455 10.7812,-9.84375 4.6752,-4.5492 13,-12.2865 18.5,-17.1875 5.5,-4.9011 14.7251,-13.4828 20.5,-19.0625 5.7751,-5.5797 14.5501,-13.65215 19.5,-17.96875 4.95,-4.3165 14.4739,-12.9805 21.1563,-19.25 l 12.125,-11.40625 3.625,-9.40625 c 1.9801,-5.1732 3.5937,-10.07535 3.5937,-10.90625 2e-4,-2.3644 -2.7704,-1.8023 -13.25,2.75 l -9.7187,4.21875 -20.6563,22.5 c -11.3679,12.375 -23.6153,25.64635 -27.2187,29.46875 -3.6034,3.8225 -11.9568,13.0475 -18.5313,20.5 -6.5743,7.4526 -15.6827,17.5401 -20.25,22.4375 l -8.3124,8.90625 -4.625,-3.90625 c -2.5517,-2.1474 -5.4853,-4.52665 -6.5313,-5.28125 -1.0461,-0.7546 -1.9063,-1.77255 -1.9063,-2.28125 0,-0.8979 20.405,-24.82755 75.0313,-87.90625 14.5528,-16.8046 29.3938,-34.05805 32.9687,-38.34375 3.575,-4.2857 11.9773,-14.03205 18.6876,-21.65625 8.6231,-9.7981 12.5011,-14.9448 13.1874,-17.625 0.5341,-2.0856 1.2732,-9.3826 1.6563,-16.1875 0.5779,-10.2642 0.4784,-12.2603 -0.6563,-11.8125 -0.7524,0.2968 -5.4249,1.92 -10.375,3.625 -14.3109,4.9291 -16.1107,6.28805 -24.0312,18.09375 -3.8662,5.7627 -11.3433,16.76875 -16.625,24.46875 -11.1257,16.2196 -34.2465,50.4174 -69.9375,103.5 -13.8677,20.625 -25.5203,37.873 -25.9063,38.3125 -0.3858,0.4394 -4.3742,-1.7337 -8.8437,-4.8125 l -8.125,-5.59375 4.875,-6.6875 c 2.6764,-3.6856 8.8985,-13.01875 13.8125,-20.71875 4.9139,-7.7 15.9061,-24.575 24.4375,-37.5 8.5314,-12.925 21.5807,-32.725 29,-44 7.4193,-11.275 26.6137,-40.39865 42.6563,-64.71875 16.0424,-24.32 34.1346,-51.95185 40.1874,-61.40625 l 11,-17.1875 -0.094,-7.09375 c -0.1187,-11.0934 -1.4383,-30.4382 -2.125,-31.125 -0.7504,-0.7504 -29.4074,14.0632 -32.4063,16.75 -1.1658,1.0446 -32.3519,62.39735 -69.3124,136.34375 -36.9607,73.9464 -67.3773,134.4375 -67.5938,134.4375 -0.2166,0 -2.5229,-1.15845 -5.0938,-2.59375 -5.7658,-3.2187 -10.1716,-4.5517 -10.9374,-3.3125 -0.315,0.5094 0.1423,0.90625 1,0.90625 0.8573,0 1.5624,0.45 1.5624,1 0,0.55 1.3501,1 3,1 2.5802,0 3.0001,0.37295 3,2.65625 2e-4,2.4464 -0.1374,2.5388 -1.75,1.125 -0.9624,-0.8439 -3.3248,-2.31995 -5.25,-3.28125 -1.925,-0.9613 -3.6744,-1.8861 -3.875,-2.0625 -0.4431,-0.39 0.1369,-1.6187 20.1563,-42.9375 22.1043,-45.6215 44.1241,-91.2562 49.2187,-102 2.3474,-4.95 9.0367,-19.04995 14.875,-31.34375 5.8383,-12.2937 10.625,-23.3187 10.625,-24.5 0,-1.7216 -4.3487,-23.75925 -5.3124,-26.96875 -0.1815,-0.6042 -22.0737,14.3861 -24.375,16.6875 -0.5544,0.5543 -18.809,53.1664 -24.5,70.625 -2.7791,8.525 -11.2297,32.825 -18.7813,54 -7.5516,21.175 -14.0606,39.85 -14.4375,41.5 -1.5728,6.8852 -12.9984,37.5 -14,37.5 -2.1849,-0.009 -15.0913,-4.93 -15.4062,-5.875 -0.6177,-1.8534 6.378,-25.0852 27.8124,-92.625 12.7961,-40.3202 13.254,-42.4191 11.4063,-51.25 -0.7767,-3.7123 -1.4063,-8.67425 -1.4063,-11.03125 2e-4,-3.8457 -0.1987,-4.1929 -1.8437,-3.3125 -2.7492,1.4714 -14.2984,16.81895 -15.7813,20.96875 -0.712,1.9934 -1.3197,5.235 -1.3437,7.1875 -0.024,1.9525 -0.4595,3.9775 -0.9687,4.5 -0.5094,0.5225 -6.3443,26.1375 -12.9688,56.9375 -14.3302,66.6268 -14.3045,66.501 -15.5938,66.5 -1.2834,-0.001 -15.8833,-3.0396 -16.2187,-3.375 -0.2096,-0.2095 9.2841,-50.48865 35.8437,-189.90625 l 4.1563,-21.8125 -5.6875,-12.1875 c -7.5887,-16.3069 -7.0162,-15.5652 -9.6562,-13.1875 -1.1972,1.0781 -5.4764,6.3515 -9.5,11.6875 -5.6782,7.5299 -7.4207,10.6641 -7.8438,14 -1.5341,12.0957 -3.5873,39.31725 -4.1562,55.28125 -0.3529,9.9 -1.0506,20.475 -1.5626,23.5 -0.5119,3.025 -1.3445,13.375 -1.8437,23 -1.7131,33.0278 -3.1533,54.53615 -5.0937,76.09375 -1.069,11.8733 -1.9376,24.11925 -1.9376,27.21875 l 0,5.625 -9.75,-0.59375 c -5.3623,-0.3368 -9.8242,-0.65775 -9.9062,-0.71875 -0.082,-0.0609 0.476,-11.375 1.25,-25.125 0.7741,-13.75 3.8895,-68.875 6.9062,-122.5 3.0169,-53.625 6.2422,-110.55 7.1563,-126.5 l 1.6563,-29 -6.7813,-10.5 c -3.7334,-5.77499 -8.3294,-12.8625 -10.1875,-15.75 -1.8581,-2.8875 -3.7875,-5.25 -4.3125,-5.25 z m -0.031,347.46875 c 49.9919,-0.65691 99.3164,18.82349 135.2813,54.15625 30.8678,30.3253 49.2662,66.7322 55.5313,109.8125 2.3543,16.1894 1.6384,47.08955 -1.4688,62.46875 -12.1091,59.9342 -50.6373,109.5335 -105.3438,135.5625 -22.1762,10.5513 -43.8478,16.1457 -69.5624,18 -7.5194,0.5422 -13.8813,0.91975 -14.1563,0.84375 -0.275,-0.0761 -5.5705,-0.4598 -11.75,-0.875 -78.2789,-5.2593 -147.1152,-60.8672 -168.7813,-136.3125 -5.9055,-20.5644 -7.9228,-37.37875 -7.1874,-59.59375 0.8451,-25.537 5.6463,-47.4636 15.1874,-69.25 27.2378,-62.1943 83.5983,-104.54045 150.8126,-113.28125 7.1324,-0.92754 14.2958,-1.43741 21.4374,-1.53125 z m -159.1562,315.53125 c 0.3658,0 2.6969,2.5429 5.1562,5.625 2.4594,3.0821 8.615,9.55695 13.6876,14.40625 19.1446,18.3025 38.7897,31.05715 64.8124,42.09375 l 9,3.8125 -7.7187,0.0312 -7.75,0.0312 -31.75,28.1875 c -17.4759,15.5061 -38.6348,34.24955 -47,41.65625 l -15.2187,13.46875 3.8437,4.59375 c 12.4728,14.9748 28.2271,39.8432 37.4687,59.125 22.1707,46.2568 25.3132,90.6486 9.9063,139.3125 -6.3497,20.0561 -13.0652,30.0629 -23.2813,34.5625 -20.8167,9.1686 -47.4992,-6.21425 -62.8437,-36.21875 -11.8415,-23.1548 -12.8793,-58.85655 -2.1875,-76.15625 6.177,-9.9946 20.3632,-17.9967 38.125,-21.5 l 5.625,-1.125 0.625,-5.1875 c 0.344,-2.8639 0.625,-9.2236 0.625,-14.125 l 0.031,-8.90625 -47.9687,0.6875 -47.9375,0.6875 -1,-3.78125 c -0.5385,-2.0769 -5.5328,-26.73125 -11.125,-54.78125 -5.5921,-28.05 -10.651,-51.874 -11.2188,-52.9375 -0.8564,-1.6044 -0.4316,-2.4559 2.4063,-5 13.6763,-12.2608 72.5788,-63.51505 75.0937,-65.34375 1.7229,-1.2528 13.6578,-11.4903 26.5313,-22.75 12.8736,-11.2597 23.6966,-20.46875 24.0625,-20.46875 z m 318.9688,1.75 c 0.3388,0.0166 0.6159,0.14529 0.9062,0.375 0.9496,0.7513 12.7663,10.83735 26.25,22.40625 13.4838,11.5689 40.7312,34.93095 60.5312,51.90625 19.8002,16.9753 36.6434,31.4555 37.4376,32.1875 1.2475,1.1501 1.1116,1.6947 -1,3.9375 -2.1617,2.296 -3.7069,8.91565 -13.4376,57.28125 l -11,54.65625 -47.6562,-0.34375 c -29.3612,-0.2076 -47.8571,0.0401 -48.2188,0.625 -0.323,0.522 -0.311,6.80495 0.031,13.96875 l 0.625,13.03125 7.625,1.53125 c 23.6208,4.7501 37.4777,16.18965 41.75,34.40625 2.6778,11.4183 2.4122,33.86845 -0.5313,44.78125 -7.5491,27.989 -26.9741,50.31315 -48.6874,55.96875 -12.4244,3.2361 -22.4485,0.4532 -31.0313,-8.625 -5.455,-5.7698 -7.5998,-9.61935 -11.375,-20.34375 -8.654,-24.5832 -12.692,-49.3018 -11.7187,-72 0.7056,-16.4581 2.5042,-27.2597 7.1874,-43.375 7.8613,-27.051 23.7916,-56.84385 45.0313,-84.21875 l 8.2187,-10.59375 -32.5,-28.90625 c -17.8748,-15.8976 -38.7695,-34.41875 -46.4374,-41.15625 l -13.9376,-12.25 -6.1562,0 c -7.0249,0 -6.6804,-0.7485 1.7812,-4 10.7476,-4.1297 28.7787,-13.47395 38.0626,-19.71875 14.025,-9.434 23.205,-17.21415 35.8437,-30.40625 8.4561,-8.82627 10.9378,-11.19705 12.4063,-11.125 z"
         style="fill:#000000" />
      <path
         id="path5631"
         style="fill:#000000"
         d="m -8265.6001,-489.40929 c -5.0165,-3.86098 3.4251,-17.024 19.1274,-29.82517 13.285,-10.83073 32.459,-22.32894 42.1359,-25.2682 l 4.2038,-1.2768 -0.3165,2.89154 c -1.1066,10.1287 -7.8733,20.54982 -20.4729,31.52997 -16.8838,14.71264 -39.5875,25.86633 -44.6784,21.94866 z m -12.4472,36.02364 c -0.8442,-0.17181 -3.9125,-1.11364 -6.8187,-2.09485 l -5.284,-1.7837 0.3552,-8.91224 0.3552,-8.91306 3.5478,-1.98458 c 4.4728,-2.50267 6.3879,-2.74013 13.624,-1.69142 7.6658,1.11225 10.6699,3.52582 10.3989,8.35484 -0.5645,10.07318 -8.6244,18.55504 -16.1772,17.024 z m 102.3693,-5.78687 c -6.1501,-2.31173 -9.0515,-4.60133 -12.3514,-9.74825 -3.5142,-5.48169 -3.6494,-6.18329 -2.2846,-11.87468 1.0383,-4.33009 1.1351,-4.41536 5.691,-5.00871 l 4.6351,-0.60335 2.674,4.63387 c 1.5741,2.72852 3.2953,4.55258 4.1864,4.43651 0.9111,-0.11782 2.6884,-3.55796 4.4675,-8.64579 3.3461,-9.56853 3.4937,-9.63543 13.3418,-6.07143 l 4.9465,1.79045 0.2549,-2.7731 c 0.1422,-1.52525 0.4478,-4.42814 0.6813,-6.4513 l 0.4255,-3.67882 6.0957,0.71821 6.0947,0.71816 1.1371,10.88606 1.1363,10.88527 -3.7768,3.46072 -3.7775,3.46093 -5.4513,-0.96905 c -2.9982,-0.53284 -5.7106,-0.93507 -6.028,-0.89372 -0.3165,0.0421 -1.359,2.60491 -2.3153,5.69715 -0.956,3.09185 -2.8072,6.5396 -4.1138,7.66181 -3.6987,3.17594 -10.7051,4.23521 -15.6703,2.36906 z m -140.669,24.58916 c -2.4884,-0.60477 -5.5253,-2.1338 -6.7492,-3.39682 -1.9487,-2.01138 -2.154,-2.82684 -1.6518,-6.56693 0.5494,-4.08585 5.0242,-11.87529 8.0744,-14.05362 1.6551,-1.18213 15.2976,0.09 17.781,1.65849 1.0297,0.65025 1.8231,2.85517 2.2737,6.31609 1.6524,12.69169 -6.4424,19.27442 -19.7281,16.04279 z m 220.4214,-87.87056 c -0.685,-2.96202 -0.8962,-3.06788 -5.1304,-2.5704 -4.2783,0.50272 -4.4126,0.61875 -4.3087,3.74353 l 0.1077,3.22386 5.0227,-0.65407 5.0234,-0.65389 -0.7146,-3.08903 z m -35.564,69.78983 c -0.6706,-5.15095 0.039,-13.80292 1.4093,-17.82287 0.5977,-1.72218 3.7983,-6.85116 7.1125,-11.39834 3.315,-4.54661 6.9952,-9.7337 8.1786,-11.52616 1.1837,-1.79247 3.6192,-4.79544 5.4129,-6.6728 l 3.261,-3.41358 -4.4593,-4.1192 c -6.5779,-6.07641 -7.9543,-12.04799 -4.5656,-19.81367 2.0775,-4.7615 6.5821,-8.13075 11.7727,-8.8066 8.1507,-1.06109 12.2618,3.46095 13.7853,15.16224 l 0.9035,6.93963 3.864,0.97962 c 8.6376,2.18972 8.4612,1.82582 2.6142,5.40657 -8.2422,5.04767 -12.0499,9.6574 -17.9049,21.67783 -4.9084,10.07782 -6.3411,12.02167 -16.5954,22.51707 -6.1731,6.31872 -11.9078,12.25853 -12.744,13.2004 -1.4159,1.59416 -1.5571,1.43517 -2.0448,-2.31014 z m 54.2207,131.71432 c -3.4026,-8.2591 -3.022,-11.6262 2.1409,-18.9358 1.1679,-1.6533 1.8775,-3.1949 1.5775,-3.4263 -0.3012,-0.2305 -3.2319,0.4221 -6.5145,1.4516 -3.283,1.0291 -6.2524,1.6531 -6.5991,1.3862 -1.7525,-1.3486 0.039,-8.3597 3.0548,-12.1105 3.7967,-4.6866 6.4049,-5.7339 17.893,-7.1866 13.1568,-1.6627 13.3807,-1.2233 6.1493,12.1019 -8.4566,15.5828 -7.8254,17.1448 3.8418,9.5024 9.1226,-5.9758 10.6126,-5.7243 10.8674,1.8338 0.1815,5.412 -3.0726,12.7563 -6.7682,15.2733 -1.3845,0.9432 -6.4118,2.0802 -13.0669,2.9558 l -10.8159,1.4324 -1.759,-4.269 z m 2.4084,-134.55791 c 0.7695,-0.78507 1.562,-2.44554 1.7618,-3.68979 0.3011,-1.87516 -0.2202,-2.4226 -3.0559,-3.19749 -2.9115,-0.79627 -3.7915,-0.68207 -5.9363,0.77292 -3.0184,2.04628 -3.0115,2.65823 0.066,5.66877 2.5788,2.52388 4.9856,2.67383 7.1674,0.44659 z m -184.661,124.09711 c -2.2091,-1.8827 -3.1678,-7.8224 -2.308,-14.3031 l 0.6074,-4.5767 12.0247,-1.5656 c 13.5537,-1.7647 12.3692,-0.7477 12.3541,-10.6083 -0.039,-8.0903 3.7772,-13.7326 10.9994,-16.3795 4.1613,-1.525 8.0909,-0.4505 11.0788,3.0292 3.0795,3.5863 3.8494,7.1595 2.8852,13.3933 -0.8099,5.2362 -1.2088,5.9076 -4.3601,7.3406 -1.908,0.8676 -7.2577,2.3026 -11.8884,3.1896 l -8.4195,1.6123 -0.2007,3.6107 c -0.2819,5.0333 -1.7679,8.6882 -4.9389,12.1483 -2.344,2.5578 -3.6223,3.0812 -9.3469,3.8266 -5.1797,0.6744 -7.0373,0.517 -8.4859,-0.7174 z m 11.2052,25.7199 c 16.5281,-6.6775 43.5382,-33.1932 50.9403,-50.0079 4.749,-10.788 7.2717,-28.0069 4.9621,-33.8686 -1.2528,-3.178 -3.6983,-2.8492 -13.9579,1.8775 -9.0384,4.1641 -18.5544,5.39 -24.6582,3.1761 -4.599,-1.667 -11.0008,-6.8561 -16.5343,-13.4013 -2.4913,-2.9472 -5.0179,-5.2985 -5.6148,-5.2256 -0.5958,0.078 -2.9146,1.9487 -5.1512,4.1685 -6.7631,6.7114 -10.406,15.3176 -14.9452,35.3041 -3.481,15.3267 -8.1659,29.4722 -11.921,35.9928 l -2.9948,5.1999 2.7555,3.8823 c 5.6716,7.9916 13.2085,13.2 21.8002,15.065 4.9543,1.0753 8.5639,0.5652 15.3189,-2.1638 z m 138.4289,25.7967 c -12.3553,-1.6821 -22.6673,-7.8514 -38.5809,-23.0817 -10.3994,-9.9531 -13.7181,-15.1572 -22.047,-34.5693 -2.5872,-6.0309 -5.0206,-10.9295 -5.4079,-10.8862 -1.4838,0.1699 -7.0372,8.4523 -15.1934,22.6672 -12.9772,22.6178 -20.1875,31.5949 -31.6185,39.3656 -16.0899,10.9381 -39.6793,15.4008 -54.8515,10.3763 -13.0012,-4.3055 -19.8918,-15.4452 -24.2222,-39.1592 l -2.6049,-14.2671 -11.9537,-10.5974 c -14.822,-13.1405 -14.9197,-13.3572 -18.5196,-41.0061 -2.2808,-17.5159 -2.4147,-20.3593 -1.2757,-26.7956 1.3915,-7.8557 5.9434,-17.66167 7.0979,-15.29162 0.3706,0.76273 5.142,14.70472 10.6013,30.98172 l 9.9252,29.5947 7.0758,-0.6297 c 6.4589,-0.5748 7.1779,-0.8399 8.2357,-3.0647 0.6374,-1.3397 2.8358,-10.7243 4.8852,-20.8548 2.0491,-10.1309 4.6686,-21.3162 5.8207,-24.8564 4.318,-13.26887 12.5762,-22.97261 24.4361,-28.71469 3.1571,-1.52845 5.869,-2.89854 6.0261,-3.04452 0.1544,-0.14594 -0.6726,-2.21609 -1.8444,-4.60092 -3.1774,-6.46548 -3.6647,-12.76181 -1.4763,-19.08948 2.8489,-8.24161 8.2195,-13.55571 24.1981,-23.94228 17.8111,-11.57767 30.4395,-20.09068 53.1833,-35.85307 14.9429,-10.35598 30.3192,-19.19654 34.2875,-19.713 2.6254,-0.34208 1.327,12.54671 -1.9359,19.21332 -1.1431,2.33651 -5.7234,7.48545 -10.7062,12.03604 -6.9316,6.32987 -10.1026,8.49882 -15.539,10.6276 -22.5111,8.81599 -59.3657,34.98072 -71.5222,50.77627 -2.7543,3.57856 -4.9121,7.23857 -4.7956,8.1333 0.1279,0.98801 1.829,2.03076 4.3312,2.65607 l 4.1192,1.02917 1.2374,9.50357 1.2375,9.50344 12.5085,3.99915 c 6.8794,2.19949 12.7143,3.97263 12.9673,3.93963 1.232,-0.1598 -0.4673,-4.83894 -4.085,-11.2585 -3.574,-6.33889 -4.0411,-7.84418 -4.2809,-13.78179 -0.3319,-8.23877 1.5008,-16.44621 4.9586,-22.21008 2.9606,-4.93466 9.7384,-11.83094 10.5689,-10.75285 0.3011,0.38806 3.5802,9.16547 7.2913,19.50529 3.7107,10.33963 7.0577,18.75899 7.4371,18.70964 0.3785,-0.0499 3.6189,-4.14558 7.1984,-9.10297 6.437,-8.91425 6.5388,-9.00113 9.287,-7.90304 6.0651,2.42218 5.2142,13.99805 -2.1433,29.16905 -4.692,9.67435 -4.7778,10.03405 -3.5534,14.90105 1.4257,5.6662 6.6793,18.7665 16.259,40.5432 3.6227,8.2358 7.5032,17.9447 8.6237,21.576 1.954,6.3325 2.2903,6.7705 8.2303,10.7167 l 6.1928,4.1144 5.1753,-11.8533 c 4.7968,-10.9861 10.8793,-34.4163 9.2588,-35.6633 -0.3127,-0.2402 -6.1281,3.2863 -12.9248,7.8359 -6.7968,4.55 -12.7394,8.3221 -13.2054,8.3828 -2.0066,0.2614 -4.5254,-8.6665 -5.2358,-18.5594 -1.4015,-19.5083 3.0022,-31.3461 14.5811,-39.19697 3.247,-2.2021 12.0862,-6.58211 19.6416,-9.7335 17.0891,-7.12816 24.4314,-11.03824 24.1912,-12.88322 -0.1006,-0.77651 -1.7485,-4.1987 -3.6608,-7.60528 -4.2988,-7.6568 -4.727,-11.2949 -2.2286,-18.92814 1.9247,-5.8785 2.0517,-6.01451 7.9005,-8.44488 15.9631,-6.63287 34.6953,-2.41959 42.5574,9.57169 2.3501,3.58515 2.8183,5.36245 3.452,13.09697 0.7003,8.55653 0.6131,9.08756 -1.9915,12.1047 -1.4985,1.73536 -4.4644,3.87577 -6.5926,4.7569 -4.2308,1.75154 -7.3016,5.03332 -6.9851,7.46511 0.1121,0.85317 1.9698,4.70953 4.1308,8.56969 2.1609,3.85975 3.7833,7.20683 3.6054,7.43793 -0.1778,0.2297 -5.4467,-1.86795 -11.7094,-4.66421 l -11.3866,-5.08366 -13.9764,6.54659 c -12.6218,5.91228 -13.948,6.76348 -13.6855,8.78158 0.2355,1.8145 0.9978,2.2658 4.0489,2.4008 2.0672,0.092 9.3813,0.5051 16.2537,0.9185 16.1313,0.9701 21.3972,0.2132 44.8846,-6.4545 10.697,-3.0367 20.1509,-5.61244 21.0075,-5.7241 1.3061,-0.16987 1.556,0.61535 1.5455,4.865 -0.039,7.9348 -2.2357,15.6893 -5.5704,19.4847 -3.7541,4.2736 -9.5535,6.7549 -25.3557,10.8477 -19.4332,5.0337 -34.6301,11.2566 -42.6194,17.4508 -2.0583,1.5962 -7.2458,6.794 -11.5279,11.5505 -4.2821,4.7569 -8.8369,9.4693 -10.1213,10.4729 -1.4683,1.1462 -3.6031,5.5054 -5.747,11.733 l -3.412,9.9091 2.3282,4.0986 c 2.6799,4.7178 1.6358,4.4973 20.2868,4.2834 7.6604,-0.088 14.4579,0.1579 15.1053,0.5434 0.6475,0.3869 4.5416,6.3528 8.6539,13.2581 5.8473,9.8192 7.2966,12.9426 6.6515,14.3388 -0.7088,1.5349 -2.9957,2.0941 -16.3698,4.0039 -11.112,1.5878 -17.1062,2.0066 -21.018,1.474 z m -110.8856,26.4511 c -1.2131,-2.2424 -0.7128,-10.4495 0.9166,-15.0288 2.7355,-7.6892 16.3721,-23.9193 33.8682,-40.308 4.4389,-4.158 15.3544,-12.4547 16.5984,-12.6166 0.7978,-0.1039 1.464,2.122 2.102,7.0193 0.8601,6.6085 0.7454,7.3808 -1.4591,9.8397 -1.3158,1.4672 -10.9066,13.0352 -21.313,25.7062 -16.6433,20.2658 -19.4555,23.2476 -23.3693,24.7783 -5.7415,2.245 -6.4283,2.3023 -7.3438,0.6099 z m 60.0587,5.7611 c -5.7176,-4.4006 -5.9107,-6.8196 -1.1587,-14.5012 l 3.7992,-6.1399 -4.4567,-10.2528 -4.4563,-10.2527 2.5899,-8.3926 c 3.1271,-10.1333 2.3575,-10.8157 13.2244,11.7311 11.6499,24.1705 11.8375,30.8185 1.0656,37.7436 -2.7374,1.7597 -5.2767,3.2384 -5.6431,3.2859 -0.3667,0.048 -2.6003,-1.4022 -4.9643,-3.2214 z"
         inkscape:connector-curvature="0" />
    </g>
  </g>
</svg>
